<?xml version="1.0" standalone="no"?><!DOCTYPE svg PUBLIC "-//W3C//DTD SVG 1.1//EN" "http://www.w3.org/Graphics/SVG/1.1/DTD/svg11.dtd"><svg t="1729516605661" class="icon" viewBox="0 0 1024 1024" version="1.1" xmlns="http://www.w3.org/2000/svg" p-id="18536" xmlns:xlink="http://www.w3.org/1999/xlink" width="200" height="200"><path d="M601.459856 71.891537C550.339938 27.16161 457.685088-14.373323 384.200206 4.796646 307.52033 30.356604 234.035449 59.111558 234.035449 59.111558v654.973942s118.214809-159.749742 300.329515-73.484881c73.484881 44.729928 137.384778 108.629825 249.209597 108.629825s182.114706-73.484881 182.114706-73.484882V43.136584s-162.944737 182.114706-364.229411 28.754953zM115.82064 1.601651c-31.949948 0-57.509907 25.559959-57.509907 60.704902v900.988545c0 31.949948 25.559959 60.704902 57.509907 60.704902s57.509907-25.559959 57.509907-60.704902V62.306553C170.135552 27.16161 144.575593 1.601651 115.82064 1.601651z" fill="#FFDC44" p-id="18537"></path></svg>