<?xml version="1.0" standalone="no"?><!DOCTYPE svg PUBLIC "-//W3C//DTD SVG 1.1//EN" "http://www.w3.org/Graphics/SVG/1.1/DTD/svg11.dtd"><svg t="1729516572484" class="icon" viewBox="0 0 1024 1024" version="1.1" xmlns="http://www.w3.org/2000/svg" p-id="16657" xmlns:xlink="http://www.w3.org/1999/xlink" width="200" height="200"><path d="M596.100056 548.151115c-22.25466 14.625044-59.366739 15.757868-82.473437 2.522227L330.375443 445.75644c-23.106699-13.225959-60.780348-12.998426-83.722449 0.518001l-70.022059 41.251242c-22.9421 13.516426-22.801708 35.403161 0.304991 48.62912l336.695534 192.773672c23.101857 13.221118 60.213936 12.093135 82.473437-2.527068l293.047934-192.536457c22.25466-14.625044 21.291276-36.932957-2.134937-49.587663l-63.70923-34.401048c-23.431054-12.649865-60.804554-11.037769-83.054372 3.572752l-144.154236 94.702124z" fill="#00CCC6" p-id="16658"></path><path d="M176.630935 217.647383c-22.9421 13.516426-22.806549 35.403161 0.30015 48.624278l336.695534 192.773673c23.106699 13.2308 60.218777 12.093135 82.473437-2.527069l293.043093-192.536457c22.259501-14.625044 21.286435-36.932957-2.130096-49.587663L561.87813 38.79195c-23.431054-12.649865-61.366124-11.957583-84.308224 1.558843L176.630935 217.647383z" fill="#4E6070" p-id="16659"></path><path d="M591.946369 809.891481c-22.25466 14.625044-59.366739 15.757868-82.473437 2.527068l-183.251176-104.916901c-23.106699-13.225959-60.785189-13.008108-83.722449 0.508318l-70.017218 41.251242c-22.9421 13.516426-22.806549 35.39832 0.30015 48.62912l336.690693 192.773672c23.106699 13.216276 60.218777 12.088294 82.473437-2.527068l293.052775-192.526775c22.25466-14.625044 21.286435-36.94748-2.130096-49.587663l-63.709229-34.41073c-23.431054-12.649865-60.809395-11.04261-83.049532 3.577593l-144.163918 94.702124z" fill="#B0B5B5" p-id="16660"></path></svg>