<?xml version="1.0" standalone="no"?><!DOCTYPE svg PUBLIC "-//W3C//DTD SVG 1.1//EN" "http://www.w3.org/Graphics/SVG/1.1/DTD/svg11.dtd"><svg t="1729516414329" class="icon" viewBox="0 0 1024 1024" version="1.1" xmlns="http://www.w3.org/2000/svg" p-id="5334" xmlns:xlink="http://www.w3.org/1999/xlink" width="200" height="200"><path d="M851.828 277.384a4655.248 4655.248 0 0 1 31.916 733.292l-768.84-84.884c57.068-284.056 82.668-574.472 76.192-866L590.88 15.656c84.364 82.432 171.496 169.504 260.948 261.728z" fill="#FFCC66" p-id="5335"></path><path d="M618.82 287.712a12609.888 12609.888 0 0 1 259.4 277.752 4640.932 4640.932 0 0 0-26.392-288.084l-233.008 10.332z" opacity=".12" p-id="5336"></path><path d="M508.776 201.64a3916122.28 3916122.28 0 0 0-223.124 14.816c-0.096-11.628-0.24-23.256-0.436-34.888l220.916-16.672c0.94 12.244 1.816 24.492 2.644 36.744z" opacity=".4" p-id="5337"></path><path d="M770.76 832.392l-521.516-39.556c1.556-11.488 3.06-22.988 4.516-34.492l517.648 34.992c-0.16 13.016-0.372 26.036-0.648 39.056zM647.58 718.796l-386.664-20.564c1.284-11.528 2.516-23.06 3.7-34.592l383.66 17.208c-0.18 12.648-0.408 25.3-0.696 37.948zM770.2 618.508l-499.852-15.128c1.012-11.556 1.976-23.116 2.888-34.684l495.772 10.824c0.452 12.992 0.848 25.988 1.192 38.988zM491.308 509.784l-213.76-1.504c0.74-11.584 1.428-23.168 2.072-34.756l211.932-0.32c-0.028 12.196-0.112 24.388-0.244 36.58zM637 407.14l-354.492 5.856c0.468-11.6 0.884-23.204 1.252-34.812l351.32-8.86c0.692 12.6 1.336 25.204 1.92 37.816zM521.096 308.016l-235.872 9.556c0.196-11.616 0.336-23.236 0.432-34.856l233.66-11.536c0.648 12.276 1.244 24.556 1.78 36.836z" opacity=".12" p-id="5338"></path><path d="M590.88 15.66a4394.52 4394.52 0 0 1 27.94 272.056l233.008-10.332C762.376 185.16 675.244 98.088 590.88 15.66z" fill="#A88643" p-id="5339"></path></svg>