<?xml version="1.0" standalone="no"?><!DOCTYPE svg PUBLIC "-//W3C//DTD SVG 1.1//EN" "http://www.w3.org/Graphics/SVG/1.1/DTD/svg11.dtd"><svg t="1729516284143" class="icon" viewBox="0 0 1119 1024" version="1.1" xmlns="http://www.w3.org/2000/svg" p-id="13025" xmlns:xlink="http://www.w3.org/1999/xlink" width="218.5546875" height="200"><path d="M1017.090227 295.25786c-10.599114-5.396878-22.038724-5.197812-29.678402 0.663551-33.686248 25.807691-69.433926 53.084041-106.530823 81.395529a2075.873545 2075.873545 0 0 0-17.982219-167.705756c-2.393206-15.836739-16.743591-29.722639-31.792917-30.877218C599.093217 161.229504 367.076144 166.161896 135.063495 193.526719c-15.044902 1.809281-30.483511 15.593437-34.079954 30.656034-45.227603 191.87669-45.227603 383.75338 0 575.63007 3.596444 15.062597 19.035052 28.851176 34.079954 30.660458 232.012649 27.369247 464.029722 32.297215 696.042371 14.797176 15.044902-1.159002 29.399711-15.040478 31.792917-30.877217a2075.869122 2075.869122 0 0 0 17.982219-167.696909c37.096897 28.307065 72.844575 55.583415 106.530823 81.386682 7.644102 5.861363 19.074865 6.069275 29.678402 0.667974 10.59469-5.405725 18.482094-15.407643 20.114428-25.82981 19.902092-127.277836 19.902092-254.560095 0-381.837931-1.632334-10.417743-9.524162-20.419661-20.114428-25.825386z" fill="#9094D1" p-id="13026"></path><path d="M359.210859 364.912969c1.344796-28.72289 21.530002-40.193466 44.891404-25.117598 72.349124 46.545857 148.153135 95.303548 224.054466 143.71177 24.639842 15.708452 24.639842 41.272842 0 56.976871-75.905755 48.417069-151.709766 97.179185-224.054466 143.729465-23.365825 15.071444-43.546608 3.600867-44.891404-25.117599a3412.281974 3412.281974 0 0 1 0-294.182909z" fill="#D3D4ED" p-id="13027"></path></svg>