<?xml version="1.0" standalone="no"?><!DOCTYPE svg PUBLIC "-//W3C//DTD SVG 1.1//EN" "http://www.w3.org/Graphics/SVG/1.1/DTD/svg11.dtd"><svg t="1729516510517" class="icon" viewBox="0 0 1024 1024" version="1.1" xmlns="http://www.w3.org/2000/svg" p-id="12958" xmlns:xlink="http://www.w3.org/1999/xlink" width="200" height="200"><path d="M859 750.25v-289h-99.299l98.299-128v-188H702v20H395v-19H239v188h156v-33h307v30.095L574.01 461.073l0.482 0.177H574v289h29v68.5h-30v60h285v-60h-44v-68.5h45z m-560-544h35v68h-35v-68z m399 35H395v-16h303v16z m56 511v63h-91v-63h91z m45-62H634v-169h165v169z m-37-485h36v68h-36v-68z m-113 255l108-114 42 2-102.238 113H651.57l-2.57-1z" fill="#686969" p-id="12959"></path><path d="M483 606.25v126H225v-126h258m60-60H165v246h378v-246zM188.15 817.75h338.773v60H188.15z" fill="#EFEA3A" p-id="12960"></path></svg>